<?xml version="1.0" encoding="utf-8"?>
<!-- Generator: Adobe Illustrator 24.0.1, SVG Export Plug-In . SVG Version: 6.00 Build 0)  -->
<svg version="1.1" id="Layer_1" xmlns="http://www.w3.org/2000/svg" xmlns:xlink="http://www.w3.org/1999/xlink" x="0px" y="0px"
	 viewBox="0 0 64 64" style="enable-background:new 0 0 64 64;" xml:space="preserve">
<style type="text/css">
	.st0{fill:#4F46E5;}
	.st1{fill:#FFFFFF;}
	.st2{fill:#444B54;}
</style>
<path class="st0" d="M50.5,2H31c-3.6,0-6.5,1.4-6.5,5v10c0,2-1.5,3.5-3.5,3.5h-9.1C10.9,20.5,7,31,7,31v31c0,0.8,0.7,1.5,1.5,1.5H9
	c0.4,0,0.8-0.2,1.1-0.5l3.9-4l4,4c0.6,0.6,1.5,0.6,2.1,0l4-4l4,4c0.6,0.6,1.5,0.6,2.1,0l4-4l4,4c0.6,0.6,1.5,0.6,2.1,0l4-4l4,4
	c0.3,0.3,0.7,0.5,1,0.5s0.8-0.2,1-0.5l5-5c0.3-0.3,0.5-0.7,0.5-1V43.5c0.8,0,0-0.7,0-1.5V8.5C55.5,4.9,54.1,2,50.5,2z"/>
<path class="st1" d="M36,0.5h-5c-3.6,0-6.5,2.9-6.5,6.5v10c0,2-1.5,4.5-3.5,4.5h-8.9c-1.1,0-5.1-1.1-5.1-0.4V31h19
	c3.6,0,6.5-2.9,6.5-6.5V7c0-1.9,1.5-3.5,3.5-3.5c0.8,0,1.5-0.6,1.5-1.4C37.5,1.3,36.8,0.5,36,0.5z"/>
<path class="st1" d="M29.4,1.2L30.5,1l-6,4v12c0,2.8-2.3,5-5,5h-9.1C8.5,22,7,20.5,7,18.6l0,0c0-1,0.4-2,1.2-2.6L20.8,5.3
	C23.2,3.1,26.2,1.7,29.4,1.2z"/>
<path class="st2" d="M55.5,43.5c-0.8,0-1.5-0.7-1.5-1.5V7c0-1.9-1.5-3.5-3.5-3.5h-21c-2,0-3.5,1.6-3.5,3.5v10c0,3.6-2.9,6.5-6.5,6.5
	h-9.1c-2.7,0-4.9-2.2-4.9-4.9c0-1.5,0.7-2.8,1.7-3.8l9.3-8c0.6-0.6,1.6-0.4,2.1,0.2c0.5,0.7,0.5,1.6-0.1,2.1l-9.3,8
	c-0.4,0.4-0.7,0.9-0.7,1.5c0,1,0.9,1.9,1.9,1.9h9.1c2,0,3.5-1.5,3.5-3.5V7c0-3.6,2.9-6.5,6.5-6.5h21C54.1,0.5,57,3.4,57,7v35
	C57,42.8,56.3,43.5,55.5,43.5z"/>
<path class="st1" d="M31.5,44.7c-2.2,0-3.7-1.9-5-3.5c-0.6-0.8-1.6-2-2.3-2.2c-0.5,0.5-1.6,2-2.4,3c-0.3,0.4-0.5,0.8-0.9,1.2
	c-0.5,0.7-1.5,0.8-2.1,0.3s-0.8-1.5-0.3-2.1c0.3-0.4,0.5-0.8,0.9-1.2c2-2.8,3-4,4.3-4.2c2.2-0.3,3.8,1.6,5.1,3.3
	c0.9,1.1,2,2.5,2.8,2.5c0.6,0,1.3-0.8,1.9-1.4c1.1-1,2.5-2.4,4.5-2.2c0.5,0,1.1,0.2,1.7,0.5c0.8,0.3,1,1.3,0.7,2s-1.3,1-2,0.7
	c-0.3-0.1-0.5-0.2-0.6-0.2c-0.5,0-1.3,0.7-2,1.4c-1,1-2.1,2-3.7,2.2C31.9,44.7,31.7,44.7,31.5,44.7z M24.4,38.8L24.4,38.8z"/>
<circle class="st1" cx="45" cy="43" r="1.5"/>
</svg>
