<?xml version="1.0" encoding="utf-8"?><svg version="1.1" id="Layer_1" xmlns="http://www.w3.org/2000/svg" xmlns:xlink="http://www.w3.org/1999/xlink" x="0px" y="0px" viewBox="0 0 122.88 101.16" style="enable-background:new 0 0 122.88 101.16" xml:space="preserve"><style type="text/css">.st0{fill-rule:evenodd;clip-rule:evenodd;}</style><g><path class="st0" d="M35.34,16.5h72.75v30.73l-72.75,0V16.5L35.34,16.5z M23.42,91.7c-0.67,2.24-1.63,4.05-2.8,5.46l88.47,0l0.04,0 c3.19-0.18,5.57-1.03,7.16-2.54c1.56-1.48,2.43-3.69,2.62-6.62V3.97H24.36v80.06C24.36,87.43,24.4,88.42,23.42,91.7L23.42,91.7 L23.42,91.7z M13.15,101.13c-0.45,0.03-0.91,0.03-1.36,0.01c-1.82-0.11-3.61-0.67-5.23-1.62c-3.55-2.09-6.29-6.09-6.54-11.32 C0.01,88.12,0,88.03,0,87.95v-70.4c0-1.1,0.89-1.98,1.98-1.98l18.41,0V1.98c0-1.1,0.89-1.98,1.98-1.98l98.52,0 c1.1,0,1.98,0.89,1.98,1.98v86.07c0,0.11-0.01,0.21-0.02,0.31c-0.27,3.9-1.55,6.95-3.84,9.13c-2.28,2.17-5.5,3.38-9.67,3.62 c-0.08,0.01-0.17,0.02-0.26,0.02L13.15,101.13L13.15,101.13L13.15,101.13z M12.05,97.19c0.1-0.02,0.21-0.03,0.32-0.03h0.72 c0.79-0.08,1.56-0.3,2.28-0.68c4.41-2.31,5.02-7.95,5.02-12.42V19.53H3.97v68.41c0,0.02,0,0.05,0,0.07 c0.19,3.76,2.12,6.62,4.61,8.09c1.08,0.64,2.26,1.01,3.43,1.08L12.05,97.19L12.05,97.19L12.05,97.19z M40.87,24.15h3.9l5.07,8.52 v-8.52h3.94v15.42l-3.94,0l-5.04-8.47v8.47h-3.92V24.15L40.87,24.15z M57.21,24.15h11.17v3.3l-6.98,0v2.46l6.47,0v3.14H61.4v3.04 h7.19v3.49H57.21V24.15L57.21,24.15L57.21,24.15z M70.12,24.15h3.96l1.42,8.61l2.09-8.61h3.93l2.1,8.62l1.43-8.62H89l-2.98,15.42 l-4.09,0l-2.37-9.71l-2.36,9.71h-4.09L70.12,24.15L70.12,24.15L70.12,24.15z M90.31,34.48l3.96-0.28c0.08,0.73,0.26,1.29,0.52,1.67 c0.43,0.62,1.04,0.93,1.84,0.93c0.59,0,1.05-0.16,1.37-0.48c0.32-0.32,0.48-0.69,0.48-1.11c0-0.4-0.15-0.76-0.46-1.07 c-0.3-0.32-1.02-0.61-2.13-0.89c-1.83-0.47-3.13-1.09-3.91-1.87c-0.79-0.78-1.18-1.77-1.18-2.97c0-0.79,0.2-1.54,0.6-2.24 c0.4-0.71,1.01-1.26,1.81-1.66c0.81-0.4,1.92-0.6,3.32-0.6c1.73,0,3.04,0.37,3.95,1.1c0.91,0.73,1.44,1.9,1.62,3.5l-3.92,0.27 c-0.1-0.7-0.32-1.21-0.66-1.53c-0.34-0.32-0.8-0.48-1.39-0.48c-0.48,0-0.85,0.12-1.1,0.35c-0.25,0.23-0.37,0.52-0.37,0.86 c0,0.24,0.1,0.46,0.3,0.66c0.19,0.2,0.66,0.39,1.39,0.57c1.82,0.45,3.13,0.9,3.91,1.36c0.79,0.46,1.36,1.03,1.72,1.71 c0.36,0.68,0.54,1.44,0.54,2.28c0,0.99-0.24,1.9-0.72,2.74c-0.48,0.83-1.15,1.47-2.01,1.9c-0.86,0.43-1.94,0.65-3.25,0.65 c-2.3,0-3.89-0.51-4.77-1.52C90.93,37.31,90.43,36.03,90.31,34.48L90.31,34.48L90.31,34.48z M35.8,60.85 c-1.1,0-1.98-0.89-1.98-1.98s0.89-1.98,1.98-1.98h30.25c1.09,0,1.98,0.89,1.98,1.98s-0.89,1.98-1.98,1.98H35.8L35.8,60.85z M74.73,60.85c-1.1,0-1.99-0.89-1.99-1.99c0-1.1,0.89-1.99,1.99-1.99h32.63c1.1,0,1.99,0.89,1.99,1.99c0,1.1-0.89,1.99-1.99,1.99 H74.73L74.73,60.85z M74.73,72.36c-1.1,0-1.99-0.89-1.99-1.99s0.89-1.99,1.99-1.99h32.63c1.1,0,1.99,0.89,1.99,1.99 c0,1.1-0.89,1.99-1.99,1.99H74.73L74.73,72.36z M74.73,83.87c-1.1,0-1.99-0.89-1.99-1.99s0.89-1.99,1.99-1.99l32.63,0 c1.1,0,1.99,0.89,1.99,1.99c0,1.1-0.89,1.99-1.99,1.99L74.73,83.87L74.73,83.87z M35.8,83.87c-1.1,0-1.98-0.89-1.98-1.98 s0.89-1.98,1.98-1.98l30.25,0c1.09,0,1.98,0.89,1.98,1.98s-0.89,1.98-1.98,1.98L35.8,83.87L35.8,83.87z M36.76,72.36 c-1.1,0-1.98-0.89-1.98-1.98s0.89-1.98,1.98-1.98h30.25c1.1,0,1.98,0.89,1.98,1.98s-0.89,1.98-1.98,1.98H36.76L36.76,72.36z"/></g></svg>